<svg width="27" height="30" viewBox="0 0 27 30" fill="none" xmlns="http://www.w3.org/2000/svg">
    <path d="M27 15.5639C27 14.2971 26.9062 13.3727 26.7031 12.4141H13.5V18.1318H21.2499C21.0938 19.5527 20.25 21.6926 18.375 23.1305L18.3487 23.3219L22.5233 26.8651L22.8125 26.8968C25.4687 24.2091 27 20.2545 27 15.5639Z" fill="#4285F4"/>
    <path d="M14.0044 30.0002C17.6093 30.0002 20.6356 28.6246 22.8461 26.252L18.6329 22.4693C17.5055 23.3806 15.9923 24.0167 14.0044 24.0167C10.4737 24.0167 7.47698 21.3174 6.40875 17.5864L6.25217 17.6018L2.1308 21.2985L2.0769 21.4721C4.27248 26.527 8.78238 30.0002 14.0044 30.0002Z" fill="#34A853"/>
    <path d="M6.23077 17.2362C5.92566 16.3805 5.74908 15.4636 5.74908 14.5163C5.74908 13.5688 5.92566 12.652 6.21472 11.7963L6.20664 11.614L1.68941 8.27588L1.54161 8.34277C0.562066 10.207 0 12.3006 0 14.5163C0 16.732 0.562066 18.8254 1.54161 20.6896L6.23077 17.2362Z" fill="#FBBC05"/>
    <path d="M13.9535 5.98333C16.4499 5.98333 18.1339 7.23845 19.0941 8.28733L22.8461 4.0233C20.5418 1.53024 17.543 0 13.9535 0C8.75378 0 4.26312 3.47308 2.0769 8.52795L6.3755 12.4138C7.45395 8.68275 10.4378 5.98333 13.9535 5.98333Z" fill="#EB4335"/>
</svg>
